# xmcd CD database file
#
# Track frame offsets:
#	150
#	9742
#	23837
#
# Disc length: 561 seconds
#
# Revision: 1
# Processed by: cddbd v1.5.1PL0 Copyright (c) Steve Scherf et al.
# Submitted via: CDex 1.51
#
DISCID=19022f03
DTITLE=THE BLUE HEARTS - ブルーハーツのテーマ
DYEAR=1988
DGENRE=ロック (日本)
TTITLE0=ブルーハーツのテーマ
TTITLE1=チェルノブイリ
TTITLE2=シャララ
EXTD=YEAR: 1988
EXTT0=
EXTT1=
EXTT2=
PLAYORDER=
